<?xml version="1.0" encoding="UTF-8"?> <svg xmlns="http://www.w3.org/2000/svg" width="480" height="110" viewBox="0 0 480 110" fill="none"><path fill-rule="evenodd" clip-rule="evenodd" d="M289.306 36.4889H304.653C311.425 36.6346 316.882 42.0762 317.028 48.8782C317.125 55.826 311.62 61.5591 304.653 61.7048H297.491V73.0253H289.306V61.6562V36.4889ZM297.494 54.3202H304.656C307.433 54.223 309.674 51.9881 309.772 49.2187C309.869 46.3521 307.579 43.9228 304.656 43.8257H297.494V54.3202Z" fill="#173765"></path><path d="M211.401 65.786V58.2067H224.994V51.2589H211.401V43.7767H229.671V36.4889H203.216V72.9767H229.671V65.786H211.401Z" fill="#173765"></path><path d="M337.686 65.786V58.2067H351.279V51.2589H337.686V43.7767H355.907V36.4889H329.501V72.9767H355.907V65.786H337.686Z" fill="#173765"></path><path fill-rule="evenodd" clip-rule="evenodd" d="M399.66 72.9767H390.305L382.948 61.6077H376.371V72.9767H368.186V36.4889H383.484C387.577 36.4889 391.426 38.4323 393.813 41.7847C397.808 47.4692 396.444 55.2915 390.792 59.2756L399.66 72.9767ZM383.535 43.8257H376.373V54.3202H383.535C386.459 54.3202 388.797 51.9881 388.797 49.0729C388.797 46.1578 386.459 43.8257 383.535 43.8257Z" fill="#173765"></path><path d="M154.981 36.4889V43.631H138.026V51.5019H151.278V58.6439H138.026V72.9767H129.841V36.4889H154.981Z" fill="#173765"></path><path d="M167.21 72.9767V36.4889H175.395V65.7374H190.985V72.9767H167.21V72.9767Z" fill="#173765"></path><path d="M426.942 43.5338V72.9767H418.757V43.5338H408.379V36.4889H437.271V43.5338H426.942Z" fill="#173765"></path><path fill-rule="evenodd" clip-rule="evenodd" d="M443.459 54.7571C443.459 64.8143 451.644 72.9767 461.73 72.9767C471.864 72.9767 480 64.8143 480 54.7085C480 44.6513 471.815 36.4889 461.73 36.4889C451.644 36.4889 443.459 44.6999 443.459 54.7571ZM450.764 54.7574C450.764 48.7328 455.685 43.8257 461.727 43.8257C467.768 43.8257 472.689 48.6842 472.689 54.7574C472.689 60.7821 467.768 65.6892 461.727 65.6892C455.685 65.6892 450.764 60.7821 450.764 54.7574Z" fill="#173765"></path><path d="M277.076 36.4889H266.894L263.386 41.639L268.453 49.0726L277.076 36.4889Z" fill="#173765"></path><path d="M241.903 36.4889L254.425 54.7571L241.903 72.9767H252.037L259.492 62.1421L266.897 72.9767H277.08L252.037 36.4889H241.903Z" fill="#173765"></path><path d="M93.2482 46.4964C93.2482 20.7946 72.3468 0 46.6221 0V0V109.463C46.6221 109.463 93.2482 83.713 93.2482 47.1766C93.2482 47.0795 93.2482 46.9823 93.2482 46.8851C93.2482 46.788 93.2482 46.6422 93.2482 46.4964Z" fill="url(#paint0_linear)"></path><path d="M46.6221 0V92.9929C72.3468 92.9929 93.2482 72.1982 93.2482 46.4964C93.2482 20.7946 72.3468 0 46.6221 0Z" fill="url(#paint1_linear)"></path><path d="M46.6221 0V73.8987C67.0849 73.8987 83.6989 57.3796 83.6989 36.9251C83.6989 16.4705 67.0849 0 46.6221 0Z" fill="url(#paint2_linear)"></path><path d="M46.6261 92.9929V0C20.8526 0 0 20.7946 0 46.4964C0 72.1982 20.8526 92.9929 46.6261 92.9929Z" fill="url(#paint3_linear)"></path><path d="M9.54608 56.0185C9.54608 76.4244 26.1113 92.9435 46.5741 92.9435V19.0934C26.16 19.0934 9.54608 35.6125 9.54608 56.0185V56.0185Z" fill="url(#paint4_linear)"></path><path d="M46.6262 63.8421C55.8287 63.8421 63.2888 56.4027 63.2888 47.2258C63.2888 38.0489 55.8287 30.6095 46.6262 30.6095C37.4237 30.6095 29.9636 38.0489 29.9636 47.2258C29.9636 56.4027 37.4237 63.8421 46.6262 63.8421Z" fill="white"></path><path d="M46.6284 52.035C49.2923 52.035 51.4518 49.8815 51.4518 47.225C51.4518 44.5685 49.2923 42.415 46.6284 42.415C43.9645 42.415 41.805 44.5685 41.805 47.225C41.805 49.8815 43.9645 52.035 46.6284 52.035Z" fill="#173765"></path><defs><linearGradient id="paint0_linear" x1="92.9802" y1="108.39" x2="92.9802" y2="0.184624" gradientUnits="userSpaceOnUse"><stop stop-color="#0099FF"></stop><stop offset="0.09" stop-color="#0585E0"></stop><stop offset="0.22" stop-color="#0A6DBB"></stop><stop offset="0.35" stop-color="#0F5A9C"></stop><stop offset="0.49" stop-color="#124A83"></stop><stop offset="0.64" stop-color="#154072"></stop><stop offset="0.8" stop-color="#173968"></stop><stop offset="1" stop-color="#173765"></stop></linearGradient><linearGradient id="paint1_linear" x1="92.9717" y1="92.0455" x2="92.9717" y2="0.155472" gradientUnits="userSpaceOnUse"><stop stop-color="#0099FF"></stop><stop offset="0.09" stop-color="#0585E0"></stop><stop offset="0.22" stop-color="#0A6DBB"></stop><stop offset="0.35" stop-color="#0F5A9C"></stop><stop offset="0.49" stop-color="#124A83"></stop><stop offset="0.64" stop-color="#154072"></stop><stop offset="0.8" stop-color="#173968"></stop><stop offset="1" stop-color="#173765"></stop></linearGradient><linearGradient id="paint2_linear" x1="83.6245" y1="73.3497" x2="83.6245" y2="-0.252645" gradientUnits="userSpaceOnUse"><stop stop-color="#0099FF"></stop><stop offset="0.09" stop-color="#0585E0"></stop><stop offset="0.22" stop-color="#0A6DBB"></stop><stop offset="0.35" stop-color="#0F5A9C"></stop><stop offset="0.49" stop-color="#124A83"></stop><stop offset="0.64" stop-color="#154072"></stop><stop offset="0.8" stop-color="#173968"></stop><stop offset="1" stop-color="#173765"></stop></linearGradient><linearGradient id="paint3_linear" x1="0.654093" y1="1.74889" x2="0.654093" y2="92.1329" gradientUnits="userSpaceOnUse"><stop stop-color="#0099FF"></stop><stop offset="0.09" stop-color="#0585E0"></stop><stop offset="0.22" stop-color="#0A6DBB"></stop><stop offset="0.35" stop-color="#0F5A9C"></stop><stop offset="0.49" stop-color="#124A83"></stop><stop offset="0.64" stop-color="#154072"></stop><stop offset="0.8" stop-color="#173968"></stop><stop offset="1" stop-color="#173765"></stop></linearGradient><linearGradient id="paint4_linear" x1="9.67763" y1="19.7541" x2="9.67763" y2="93.0796" gradientUnits="userSpaceOnUse"><stop stop-color="#0099FF"></stop><stop offset="0.09" stop-color="#0585E0"></stop><stop offset="0.22" stop-color="#0A6DBB"></stop><stop offset="0.35" stop-color="#0F5A9C"></stop><stop offset="0.49" stop-color="#124A83"></stop><stop offset="0.64" stop-color="#154072"></stop><stop offset="0.8" stop-color="#173968"></stop><stop offset="1" stop-color="#173765"></stop></linearGradient></defs></svg> 